<svg xmlns="http://www.w3.org/2000/svg" version="1.1" height="200px" width="400px"> <g>
  <g>
    <g fill="#a00932">
      <path d="M20.99504,114.26884c-0.66336,0 -0.99504,-0.36485 -0.99504,-1.09454L20,86.82571c0,-0.72969 0.33168,-1.09454 0.99504,-1.09454L25.2339,85.73116c0.50415,0 0.88227,0.39801 1.13434,1.19404L32.05985,104.77618c0.58376,1.83087 0.9287,2.93536 1.03484,3.31347c0.10614,0.37811 0.25871,1.07132 0.45772,2.07963L33.67181,110.16928c0.19901,-1.0083 0.35158,-1.70151 0.45772,-2.07963c0.10614,-0.37811 0.45108,-1.48261 1.03484,-3.31347L40.85598,86.92521c0.25208,-0.79603 0.63019,-1.19404 1.13434,-1.19404L46.22918,85.73116c0.66336,0 0.99504,0.36485 0.99504,1.09454L47.22422,113.17429c0,0.72969 -0.33168,1.09454 -0.99504,1.09454L44.39832,114.26884c-0.66336,0 -0.99504,-0.36485 -0.99504,-1.09454L43.40328,92.29841c0,-0.53069 0.01327,-1.06137 0.0398,-1.59206L43.36348,90.70635L36.0201,113.05489c-0.26534,0.8093 -0.70316,1.21395 -1.31345,1.21395L32.51757,114.26884c-0.61029,0 -1.04811,-0.40465 -1.31345,-1.21395L23.86074,90.70635L23.78114,90.70635c0.02653,0.53069 0.0398,1.06137 0.0398,1.59206L23.82094,113.17429c0,0.72969 -0.33168,1.09454 -0.99504,1.09454L20.99504,114.26884z"></path>
      <path x="0" y="0" d="M52.0601,114.26884c-0.68989,0 -0.869,-0.43782 -0.53732,-1.31345L61.43335,86.94511c0.30514,-0.8093 0.74296,-1.21395 1.31345,-1.21395L65.53291,85.73116c0.57049,0 1.0083,0.40465 1.31345,1.21395L76.75693,112.95539c0.33168,0.87563 0.15257,1.31345 -0.53732,1.31345L74.18973,114.26884c-0.70316,0 -1.18078,-0.32505 -1.43285,-0.97514L70.26929,106.70655L58.01043,106.70655L55.52283,113.2937c-0.25208,0.65009 -0.72969,0.97514 -1.43285,0.97514z M59.26417,103.44283L69.01554,103.44283L65.97072,95.48253c-0.27861,-0.74296 -0.5539,-1.56553 -0.82588,-2.46769c-0.27198,-0.90217 -0.59371,-2.18245 -0.96519,-3.84084L64.10005,89.17399c-0.37148,1.6584 -0.69321,2.93868 -0.96519,3.84084c-0.27198,0.90217 -0.54727,1.72473 -0.82588,2.46769L59.26417,103.44283z"></path>
      <path d="M75.82159,89.15409c-0.72969,0 -1.09454,-0.29851 -1.09454,-0.89553L74.72705,86.6267c0,-0.59702 0.36485,-0.89553 1.09454,-0.89553L96.87658,85.73116c0.72969,0 1.09454,0.29851 1.09454,0.89553L97.97112,88.25856c0,0.59702 -0.36485,0.89553 -1.09454,0.89553L88.25956,89.15409L88.25956,113.17429c0,0.72969 -0.33168,1.09454 -0.99504,1.09454L85.43365,114.26884c-0.66336,0 -0.99504,-0.36485 -0.99504,-1.09454L84.43862,89.15409L75.82159,89.15409z"></path>
      <path d="M100.49852,89.15409c-0.72969,0 -1.09454,-0.29851 -1.09454,-0.89553L99.40398,86.6267c0,-0.59702 0.36485,-0.89553 1.09454,-0.89553L121.55351,85.73116c0.72969,0 1.09454,0.29851 1.09454,0.89553L122.64805,88.25856c0,0.59702 -0.36485,0.89553 -1.09454,0.89553L112.93649,89.15409L112.93649,113.17429c0,0.72969 -0.33168,1.09454 -0.99504,1.09454L110.11058,114.26884c-0.66336,0 -0.99504,-0.36485 -0.99504,-1.09454L109.11554,89.15409L100.49852,89.15409z"></path>
      <path d="M127.74264,114.26884c-0.66336,0 -0.99504,-0.36485 -0.99504,-1.09454L126.7476,86.82571c0,-0.72969 0.33168,-1.09454 0.99504,-1.09454L129.57351,85.73116c0.66336,0 0.99504,0.36485 0.99504,1.09454L130.56855,97.79102L144.45927,97.79102L144.45927,86.82571c0,-0.72969 0.33168,-1.09454 0.99504,-1.09454L147.28517,85.73116c0.66336,0 0.99504,0.36485 0.99504,1.09454L148.28021,113.17429c0,0.72969 -0.33168,1.09454 -0.99504,1.09454L145.45431,114.26884c-0.66336,0 -0.99504,-0.36485 -0.99504,-1.09454L144.45927,101.05474L130.56855,101.05474L130.56855,113.17429c0,0.72969 -0.33168,1.09454 -0.99504,1.09454L127.74264,114.26884z"></path>
      <path d="M156.0415,114.26884c-0.66336,0 -0.99504,-0.36485 -0.99504,-1.09454L155.04646,86.82571c0,-0.72969 0.33168,-1.09454 0.99504,-1.09454L173.45466,85.73116c0.72969,0 1.09454,0.29851 1.09454,0.89553L174.5492,88.09935c0,0.59702 -0.36485,0.89553 -1.09454,0.89553L158.86741,88.99489L158.86741,97.83082L172.26061,97.83082c0.72969,0 1.09454,0.29851 1.09454,0.89553L173.35515,100.19901c0,0.59702 -0.36485,0.89553 -1.09454,0.89553L158.86741,101.09454L158.86741,111.00511L174.05168,111.00511c0.72969,0 1.09454,0.29851 1.09454,0.89553L175.14622,113.3733c0,0.59702 -0.36485,0.89553 -1.09454,0.89553L156.0415,114.26884z"></path>
      <path d="M177.89252,86.92521c-0.21227,-0.79603 -0.0398,-1.19404 0.51742,-1.19404L180.83783,85.73116c0.42455,0 0.70979,0.30514 0.85573,0.91543L186.13143,105.77122c0.18574,0.7695 0.3947,1.60533 0.62687,2.50749c0.23218,0.90217 0.4345,1.75127 0.60697,2.5473L187.46478,110.82601c0.13267,-0.78276 0.28856,-1.55889 0.46767,-2.32839c0.17911,-0.7695 0.38143,-1.67166 0.60697,-2.7065L193.07679,86.80581c0.17247,-0.71643 0.59702,-1.07464 1.27365,-1.07464L197.09674,85.73116c0.67663,0 1.10117,0.35821 1.27365,1.07464L202.90776,105.79112c0.22554,1.03484 0.42787,1.93701 0.60697,2.7065c0.17911,0.7695 0.335,1.54562 0.46767,2.32839L204.0819,110.82601c0.17247,-0.79603 0.3748,-1.64513 0.60697,-2.5473c0.23218,-0.90217 0.44113,-1.738 0.62687,-2.50749L209.75362,86.6466c0.14594,-0.61029 0.43118,-0.91543 0.85573,-0.91543L213.03724,85.73116c0.55722,0 0.72969,0.39801 0.51742,1.19404L206.7088,112.73648c-0.26534,1.02157 -0.75623,1.53236 -1.47266,1.53236L202.74855,114.26884c-0.66336,0 -1.13434,-0.55722 -1.41295,-1.67166L196.53952,93.51236c-0.23881,-0.9685 -0.41128,-1.76122 -0.51742,-2.37814c-0.10614,-0.61692 -0.19901,-1.25706 -0.27861,-1.92042L195.70369,89.2138c-0.0796,0.66336 -0.17247,1.3035 -0.27861,1.92042c-0.10614,0.61692 -0.27861,1.40964 -0.51742,2.37814L190.11158,112.59717c-0.27861,1.11444 -0.74959,1.67166 -1.41295,1.67166L186.21103,114.26884c-0.71643,0 -1.20731,-0.51079 -1.47266,-1.53236L177.89252,86.92521z"></path>
    </g>
    <g fill="#000000">
      <path x="0" y="0" d="M217.49051,114.26884c-0.66336,0 -0.99504,-0.36485 -0.99504,-1.09454L216.49547,86.82571c0,-0.72969 0.33168,-1.09454 0.99504,-1.09454L225.84882,85.73116c4.51084,0 7.55565,0.75955 9.13444,2.27864c1.57879,1.51909 2.36819,3.60535 2.36819,6.25878c0,2.65343 -0.7894,4.73969 -2.36819,6.25878c-1.57879,1.51909 -4.62361,2.27864 -9.13444,2.27864L220.31641,102.80601L220.31641,113.17429c0,0.72969 -0.33168,1.09454 -0.99504,1.09454z M220.31641,99.54228L225.90852,99.54228c2.91878,0 4.90885,-0.4146 5.97022,-1.2438c1.06137,-0.8292 1.59206,-2.1725 1.59206,-4.0299c0,-1.8574 -0.53069,-3.2007 -1.59206,-4.0299c-1.06137,-0.8292 -3.05145,-1.2438 -5.97022,-1.2438L220.31641,88.99489L220.31641,99.54228z"></path>
      <path d="M243.52068,114.26884c-0.66336,0 -0.99504,-0.36485 -0.99504,-1.09454L242.52564,86.82571c0,-0.72969 0.33168,-1.09454 0.99504,-1.09454L260.93383,85.73116c0.72969,0 1.09454,0.29851 1.09454,0.89553L262.02838,88.09935c0,0.59702 -0.36485,0.89553 -1.09454,0.89553L246.34659,88.99489L246.34659,97.83082L259.73979,97.83082c0.72969,0 1.09454,0.29851 1.09454,0.89553L260.83433,100.19901c0,0.59702 -0.36485,0.89553 -1.09454,0.89553L246.34659,101.09454L246.34659,111.00511L261.53086,111.00511c0.72969,0 1.09454,0.29851 1.09454,0.89553L262.6254,113.3733c0,0.59702 -0.36485,0.89553 -1.09454,0.89553L243.52068,114.26884z"></path>
      <path x="0" y="0" d="M268.79463,114.26884c-0.66336,0 -0.99504,-0.36485 -0.99504,-1.09454L267.79959,86.82571c0,-0.72969 0.33168,-1.09454 0.99504,-1.09454L278.40669,85.73116c3.83421,0 6.61036,0.71643 8.32846,2.14928c1.7181,1.43285 2.57715,3.32342 2.57715,5.67171c0,2.06968 -0.69321,3.80768 -2.07963,5.214c-1.38642,1.40632 -3.35991,2.21562 -5.92047,2.42789L281.3122,101.23385c1.35325,1.0083 2.24878,1.77448 2.6866,2.29854c0.43782,0.52405 0.9287,1.23053 1.47266,2.11943L289.96902,112.95539c0.54395,0.87563 0.42455,1.31345 -0.35821,1.31345L287.34212,114.26884c-0.62356,0 -1.08791,-0.25871 -1.39305,-0.77613L281.80972,106.38814c-0.59702,-1.02157 -1.45275,-2.02324 -2.5672,-3.00501c-1.11444,-0.98177 -2.50086,-1.47266 -4.15926,-1.47266L271.62054,101.91047L271.62054,113.17429c0,0.72969 -0.33168,1.09454 -0.99504,1.09454z M271.62054,98.64675L277.37185,98.64675c2.5871,0 4.57717,-0.34163 5.97022,-1.02489c1.39305,-0.68326 2.08958,-2.11943 2.08958,-4.30851c0,-1.67166 -0.63682,-2.80932 -1.91047,-3.41298c-1.27365,-0.60366 -3.00501,-0.90548 -5.19409,-0.90548L271.62054,88.99489L271.62054,98.64675z"></path>
      <path d="M296.53627,114.26884c-0.66336,0 -0.99504,-0.36485 -0.99504,-1.09454L295.54123,86.82571c0,-0.72969 0.33168,-1.09454 0.99504,-1.09454L298.36714,85.73116c0.66336,0 0.99504,0.36485 0.99504,1.09454L299.36218,98.52734c0,0.53069 -0.01327,1.06137 -0.0398,1.59206L299.40198,100.1194L312.69568,86.50729c0.50415,-0.51742 0.9685,-0.77613 1.39305,-0.77613L316.49672,85.73116c1.10117,0 1.22058,0.43782 0.35821,1.31345L306.74535,97.3532L317.39225,112.95539c0.58376,0.87563 0.46435,1.31345 -0.35821,1.31345L314.60615,114.26884c-0.58376,0 -1.04811,-0.25871 -1.39305,-0.77613L304.11845,100.0597L299.36218,104.89558L299.36218,113.17429c0,0.72969 -0.33168,1.09454 -0.99504,1.09454L296.53627,114.26884z"></path>
      <path d="M322.96446,114.26884c-0.66336,0 -0.99504,-0.36485 -0.99504,-1.09454L321.96942,86.82571c0,-0.72969 0.33168,-1.09454 0.99504,-1.09454L324.79533,85.73116c0.66336,0 0.99504,0.36485 0.99504,1.09454L325.79037,113.17429c0,0.72969 -0.33168,1.09454 -0.99504,1.09454L322.96446,114.26884z"></path>
      <path d="M333.55166,114.26884c-0.66336,0 -0.99504,-0.36485 -0.99504,-1.09454L332.55662,86.82571c0,-0.72969 0.33168,-1.09454 0.99504,-1.09454L336.09895,85.73116c0.9287,0 1.59206,0.33168 1.99007,0.99504L350.5469,107.60209L350.6265,107.60209c-0.02653,-0.53069 -0.0398,-1.06137 -0.0398,-1.59206L350.5867,86.82571c0,-0.72969 0.33168,-1.09454 0.99504,-1.09454L353.4126,85.73116c0.66336,0 0.99504,0.36485 0.99504,1.09454L354.40764,113.17429c0,0.72969 -0.33168,1.09454 -0.99504,1.09454L351.66134,114.26884c-0.9287,0 -1.59206,-0.33168 -1.99007,-0.99504L336.41737,91.12427L336.33776,91.12427c0.02653,0.53069 0.0398,1.06137 0.0398,1.59206L336.37756,113.17429c0,0.72969 -0.33168,1.09454 -0.99504,1.09454L333.55166,114.26884z"></path>
      <path d="M360.59677,112.11955c-0.70316,-0.63682 -0.8889,-1.19404 -0.55722,-1.67166L361.07439,108.95534c0.35821,-0.51742 0.93534,-0.47762 1.73136,0.1194c1.04811,0.78276 2.13933,1.42622 3.27367,1.93037c1.13434,0.50415 2.51081,0.75623 4.1294,0.75623c1.19404,0 2.20235,-0.17911 3.02491,-0.53732c0.82256,-0.35821 1.48261,-0.87232 1.98012,-1.54231c0.49752,-0.66999 0.74628,-1.48261 0.74628,-2.43784c0,-0.68989 -0.10282,-1.33003 -0.30846,-1.92042c-0.20564,-0.59039 -0.534,-1.08459 -0.98509,-1.48261c-0.45108,-0.39801 -0.92207,-0.70979 -1.41295,-0.93534c-0.8093,-0.37148 -2.01993,-0.80266 -3.63189,-1.29355c-1.61196,-0.49089 -3.0216,-1.02157 -4.22891,-1.59206c-1.19404,-0.57049 -2.14596,-1.26038 -2.85576,-2.06968c-0.70979,-0.8093 -1.18078,-1.64181 -1.41295,-2.49754c-0.23218,-0.85573 -0.34826,-1.83419 -0.34826,-2.93536c0,-1.68493 0.49089,-3.13768 1.47266,-4.35826c0.98177,-1.22058 2.18577,-2.02988 3.61199,-2.42789c1.42622,-0.39801 2.87566,-0.59702 4.34831,-0.59702c1.68493,0 3.15095,0.21891 4.39806,0.65672c1.24711,0.43782 2.36156,1.0083 3.34333,1.71146c0.68989,0.49089 0.8491,1.0083 0.47762,1.55226L377.4129,90.50734c-0.30514,0.43782 -0.90217,0.34495 -1.79107,-0.27861c-0.67663,-0.47762 -1.50251,-0.92538 -2.47764,-1.3433c-0.97514,-0.41792 -1.94032,-0.62687 -2.89556,-0.62687c-1.22058,0 -2.23552,0.14262 -3.04481,0.42787c-0.8093,0.28524 -1.44612,0.76618 -1.91047,1.4428c-0.46435,0.67663 -0.69653,1.45939 -0.69653,2.34829c0,0.55722 0.05307,1.07132 0.15921,1.54231c0.10614,0.47098 0.37811,0.95192 0.81593,1.4428c0.43782,0.49089 0.9685,0.869 1.59206,1.13434c0.83583,0.35821 2.1327,0.77945 3.8906,1.2637c1.7579,0.48425 3.29357,1.07796 4.60702,1.78112c1.22058,0.65009 2.09953,1.33003 2.63685,2.03983c0.53732,0.70979 0.95524,1.47929 1.25375,2.30849c0.29851,0.8292 0.44777,1.76122 0.44777,2.79605c0,1.88394 -0.48425,3.4561 -1.45275,4.71648c-0.9685,1.26038 -2.11611,2.13601 -3.44283,2.6269c-1.32672,0.49089 -2.99175,0.73633 -4.99509,0.73633c-2.40136,0 -4.39143,-0.27861 -5.97022,-0.83583c-1.57879,-0.55722 -2.75957,-1.19404 -3.54233,-1.91047z"></path>
    </g>
  </g>
  <g fill="#424242">
    <g>
      <polygon points="20,75.13 20,73.61 380,73.61 380,76.66 20,76.66 20,75.13"></polygon>
      <polygon points="20,124.87 20,123.34 380,123.34 380,126.39 20,126.39 20,124.87"></polygon>
    </g>
  </g>
</g>
</svg>